<svg width="498" height="97" viewBox="0 0 498 97" fill="none" xmlns="http://www.w3.org/2000/svg">
<path d="M87.909 36.8182H62.2726C62.0908 34.697 61.6059 32.7727 60.8181 31.0455C60.0605 29.3182 58.9999 27.8333 57.6362 26.5909C56.3029 25.3182 54.6817 24.3485 52.7726 23.6818C50.8635 22.9848 48.6968 22.6364 46.2726 22.6364C42.0302 22.6364 38.4393 23.6667 35.4999 25.7273C32.5908 27.7879 30.3787 30.7424 28.8635 34.5909C27.3787 38.4394 26.6362 43.0606 26.6362 48.4545C26.6362 54.1515 27.3938 58.9242 28.909 62.7727C30.4544 66.5909 32.6817 69.4697 35.5908 71.4091C38.4999 73.3182 41.9999 74.2727 46.0908 74.2727C48.4241 74.2727 50.515 73.9848 52.3635 73.4091C54.212 72.803 55.818 71.9394 57.1817 70.8182C58.5453 69.697 59.6514 68.3485 60.4999 66.7727C61.3787 65.1667 61.9696 63.3636 62.2726 61.3636L87.909 61.5455C87.6059 65.4848 86.4999 69.5 84.5908 73.5909C82.6817 77.6515 79.9696 81.4091 76.4544 84.8636C72.9696 88.2879 68.6514 91.0455 63.4999 93.1364C58.3484 95.2273 52.3635 96.2727 45.5453 96.2727C36.9999 96.2727 29.3332 94.4394 22.5453 90.7727C15.7877 87.1061 10.4393 81.7121 6.49987 74.5909C2.59078 67.4697 0.63623 58.7576 0.63623 48.4545C0.63623 38.0909 2.63623 29.3636 6.63623 22.2727C10.6362 15.1515 16.0302 9.77272 22.818 6.13636C29.6059 2.46969 37.1817 0.63636 45.5453 0.63636C51.4241 0.63636 56.8332 1.43939 61.7726 3.04545C66.712 4.65151 71.0453 7 74.7726 10.0909C78.4999 13.1515 81.4999 16.9242 83.7726 21.4091C86.0453 25.8939 87.4241 31.0303 87.909 36.8182Z" fill="#AF734A"/>
<path d="M189.557 48.4545C189.557 58.8182 187.542 67.5606 183.511 74.6818C179.481 81.7727 174.042 87.1515 167.193 90.8182C160.345 94.4545 152.708 96.2727 144.284 96.2727C135.799 96.2727 128.132 94.4394 121.284 90.7727C114.466 87.0758 109.042 81.6818 105.011 74.5909C101.011 67.4697 99.0112 58.7576 99.0112 48.4545C99.0112 38.0909 101.011 29.3636 105.011 22.2727C109.042 15.1515 114.466 9.77272 121.284 6.13636C128.132 2.46969 135.799 0.63636 144.284 0.63636C152.708 0.63636 160.345 2.46969 167.193 6.13636C174.042 9.77272 179.481 15.1515 183.511 22.2727C187.542 29.3636 189.557 38.0909 189.557 48.4545ZM163.557 48.4545C163.557 42.8788 162.814 38.1818 161.329 34.3636C159.875 30.5151 157.708 27.6061 154.829 25.6364C151.981 23.6364 148.466 22.6364 144.284 22.6364C140.102 22.6364 136.572 23.6364 133.693 25.6364C130.845 27.6061 128.678 30.5151 127.193 34.3636C125.739 38.1818 125.011 42.8788 125.011 48.4545C125.011 54.0303 125.739 58.7424 127.193 62.5909C128.678 66.4091 130.845 69.3182 133.693 71.3182C136.572 73.2879 140.102 74.2727 144.284 74.2727C148.466 74.2727 151.981 73.2879 154.829 71.3182C157.708 69.3182 159.875 66.4091 161.329 62.5909C162.814 58.7424 163.557 54.0303 163.557 48.4545Z" fill="#AF734A"/>
<path d="M201.25 95V1.90909H266.704V22.2727H226.523V38.2727H262.704V58.6364H226.523V95H201.25Z" fill="#AF734A"/>
<path d="M276 95V1.90909H341.454V22.2727H301.273V38.2727H337.454V58.6364H301.273V95H276Z" fill="#AF734A"/>
<path d="M350.75 95V1.90909H417.841V22.2727H376.023V38.2727H414.386V58.6364H376.023V74.6364H417.659V95H350.75Z" fill="#AF734A"/>
<path d="M430.375 95V1.90909H497.466V22.2727H455.648V38.2727H494.011V58.6364H455.648V74.6364H497.284V95H430.375Z" fill="#AF734A"/>
</svg>
